<svg preserveAspectRatio="xMidYMid meet" viewBox="0 0 512.000000 512.000000" height="512.000000pt" width="512.000000pt" xmlns="http://www.w3.org/2000/svg" version="1.0">
<metadata>
Created by potrace 1.14, written by Peter Selinger 2001-2017
</metadata>
<g stroke="none" fill="#000000" transform="translate(0.000000,512.000000) scale(0.100000,-0.100000)">
<path d="M1026 4198 c3 -5 10 -6 15 -3 13 9 11 12 -6 12 -8 0 -12 -4 -9 -9z"></path>
<path d="M1003 4182 l-63 -3 -1 -37 c0 -20 0 -61 1 -91 1 -40 -2 -51 -11 -46
-8 6 -10 4 -3 -6 13 -22 14 -102 1 -118 -9 -12 -9 -13 1 -7 19 11 16 -93 -4
-115 -12 -13 -12 -19 -3 -25 7 -4 10 -3 5 4 -3 6 -2 13 3 16 14 9 12 -96 -2
-113 -9 -12 -9 -13 1 -7 10 6 12 -17 11 -106 -2 -161 -3 -156 31 -173 17 -9
28 -20 25 -24 -3 -5 4 -7 15 -4 12 3 20 0 20 -6 0 -7 4 -10 9 -6 5 3 16 -2 24
-10 9 -8 19 -15 23 -15 9 0 73 -32 119 -59 24 -14 30 -25 31 -54 1 -19 4 -43
8 -52 5 -13 2 -16 -9 -11 -11 4 -14 2 -9 -6 4 -6 8 -40 9 -75 1 -60 0 -62 -17
-46 -10 9 -21 13 -25 10 -3 -4 -1 -7 5 -7 7 0 12 -4 12 -8 0 -10 -196 -10
-206 0 -4 4 -13 3 -20 -3 -8 -6 -21 -9 -29 -5 -17 6 -17 9 -17 -202 0 -91 -3
-130 -10 -125 -7 4 -8 1 -2 -8 13 -21 18 -122 5 -115 -5 4 -13 2 -16 -4 -4 -6
-1 -9 6 -8 10 2 14 -19 15 -82 2 -68 -1 -87 -14 -96 -14 -11 -15 -15 -4 -26
11 -11 12 -10 7 5 -4 10 -2 17 4 17 6 0 11 -12 11 -26 0 -14 -4 -23 -9 -19 -5
3 -13 1 -16 -5 -4 -6 -1 -9 6 -8 13 3 15 -8 18 -83 1 -22 5 -26 27 -23 21 2
23 0 13 -12 -16 -19 -4 -18 15 2 9 8 16 11 16 5 0 -6 5 -11 11 -11 5 0 7 5 3
12 -4 6 -3 8 4 4 6 -3 9 -15 7 -26 -2 -11 1 -19 8 -17 7 1 11 -4 9 -10 -1 -7
3 -13 8 -13 6 0 10 7 8 16 -2 10 3 19 10 21 7 3 10 -1 6 -10 -5 -15 32 -44 43
-34 2 3 -5 8 -16 12 -12 3 -21 11 -21 17 0 5 7 7 15 4 8 -3 22 -9 30 -12 10
-4 15 0 15 10 0 9 -5 16 -11 16 -5 0 -7 -4 -4 -10 4 -6 -1 -7 -11 -3 -11 4
-13 8 -6 11 7 2 9 9 6 14 -4 6 -2 8 4 4 5 -3 13 0 15 6 3 7 6 5 6 -6 1 -19 1
-19 23 0 l21 19 -18 -28 c-13 -20 -15 -30 -6 -40 6 -8 8 -17 4 -21 -4 -4 0 -4
9 -1 9 4 19 2 23 -4 3 -6 1 -11 -6 -11 -7 0 -10 -2 -7 -5 8 -8 38 6 38 17 0 5
-5 6 -12 2 -7 -5 -8 -3 -3 6 6 9 4 11 -5 5 -9 -6 -11 -4 -5 5 6 9 4 11 -5 5
-9 -5 -11 -4 -6 3 5 8 2 10 -8 6 -19 -7 -21 7 -4 24 16 16 31 15 25 -2 -3 -7
3 -20 14 -30 14 -12 18 -23 13 -43 -6 -21 -4 -24 7 -18 11 7 12 6 3 -6 -6 -8
-10 -27 -9 -44 0 -16 -3 -35 -7 -42 -5 -6 -4 -14 3 -18 11 -7 -13 -22 -203
-122 l-88 -46 -1 -46 c-1 -25 -1 -63 0 -84 1 -28 -2 -36 -11 -31 -10 6 -11 4
0 -7 17 -18 15 -59 -4 -80 -12 -13 -12 -19 -3 -25 7 -4 10 -3 5 4 -3 6 -2 13
3 16 14 9 12 -96 -2 -113 -9 -12 -9 -13 0 -7 18 10 18 -95 1 -113 -11 -11 -10
-12 0 -6 19 10 13 -54 -7 -80 -15 -18 -15 -19 2 -6 14 11 17 11 17 -1 0 -8 -6
-20 -12 -27 -9 -10 -9 -12 -1 -7 9 5 11 -18 9 -90 -2 -69 1 -97 10 -101 7 -2
39 -5 72 -6 49 -2 58 -5 55 -18 -3 -9 1 -20 8 -25 9 -5 11 -2 6 9 -7 17 7 30
34 32 12 1 15 -4 11 -14 -5 -14 -3 -14 11 -2 9 7 17 10 17 5 0 -5 4 -2 10 6 8
12 10 12 16 -3 4 -11 17 -17 37 -17 17 0 27 -3 23 -7 -11 -12 -45 -13 -51 -3
-4 6 -11 7 -17 4 -7 -5 -8 -2 -3 7 7 11 6 12 -6 3 -12 -9 -33 -11 -41 -4 -2 1
-11 3 -21 5 -13 3 -15 0 -8 -9 7 -9 7 -16 -1 -24 -8 -8 -9 -12 -1 -12 6 0 14
7 17 16 3 8 11 12 17 8 8 -5 8 -9 -1 -14 -7 -4 -1 -8 15 -8 16 0 22 4 15 8 -9
5 -9 9 -1 14 6 4 14 0 17 -9 4 -10 13 -14 23 -10 30 12 51 14 51 4 0 -6 10 -3
21 5 23 16 53 11 42 -8 -4 -6 1 -5 10 3 14 11 20 11 32 1 13 -10 19 -10 33 4
10 9 22 13 25 10 4 -4 -1 -13 -11 -21 -15 -13 -15 -13 4 -4 12 6 25 7 29 3 5
-4 5 -1 1 6 -11 18 5 15 19 -5 9 -13 14 -13 20 -3 5 9 4 11 -3 6 -7 -4 -12 -3
-12 3 0 19 19 21 29 4 9 -17 10 -17 17 0 6 17 8 17 25 1 18 -16 25 -10 20 18
-2 17 18 7 24 -12 5 -16 10 -18 25 -10 16 9 18 15 10 38 l-10 27 19 -24 c10
-14 17 -32 14 -40 -4 -13 -3 -13 6 1 7 10 19 14 31 11 11 -3 27 1 36 8 15 12
16 11 10 -11 -6 -19 -5 -21 3 -10 16 23 13 43 -5 36 -8 -3 -13 -2 -10 2 2 4
-9 8 -26 9 -20 0 -26 -2 -17 -7 7 -5 16 -7 20 -4 4 2 10 0 14 -5 3 -6 -7 -9
-24 -8 -16 1 -27 6 -23 11 3 5 1 6 -5 3 -5 -3 -10 0 -10 7 0 17 95 15 106 -3
7 -10 9 -9 14 3 4 9 13 13 22 10 8 -3 15 -2 15 4 0 11 -18 11 -37 -1 -9 -6
-11 -3 -7 7 3 9 10 16 15 16 5 0 9 5 9 11 0 6 -7 9 -15 5 -8 -3 -15 -1 -15 4
0 6 8 10 18 10 14 0 15 2 2 10 -13 8 -13 10 1 10 22 0 31 24 16 40 -9 10 -8
12 5 7 10 -3 20 -2 23 4 4 5 3 9 -2 8 -20 -3 -34 2 -28 11 3 5 13 7 23 4 14
-5 15 -4 2 5 -8 6 -11 11 -6 11 6 0 2 6 -8 13 -17 13 -17 14 0 28 16 13 17 12
10 -6 -5 -15 -4 -17 5 -8 6 6 8 17 3 24 -20 33 -11 46 29 44 21 -1 43 -8 48
-16 5 -8 9 -9 9 -3 0 19 -25 34 -49 29 -12 -2 -19 0 -16 5 7 11 85 7 105 -5 9
-6 11 -4 5 5 -5 8 -3 11 5 8 7 -2 14 -12 16 -22 1 -10 5 -21 9 -24 3 -4 4 5 1
20 -6 34 3 42 21 20 8 -9 12 -11 8 -4 -3 6 -1 12 4 12 6 0 11 -4 11 -10 0 -5
5 -10 11 -10 5 0 7 5 4 10 -3 6 1 10 10 10 9 0 14 -3 12 -7 -3 -5 6 -9 20 -10
16 0 21 2 13 7 -8 5 -9 9 -1 14 6 4 11 3 11 -3 0 -5 14 -8 31 -6 23 3 29 0 25
-10 -3 -9 0 -12 9 -8 8 3 12 10 9 15 -4 6 4 5 16 -2 12 -7 20 -8 16 -2 -6 11
22 21 41 15 7 -2 9 -12 6 -21 -4 -13 -2 -12 10 3 16 19 17 20 48 2 23 -13 29
-14 20 -3 -8 10 -9 16 -1 21 5 3 10 2 10 -4 0 -5 14 -8 31 -6 23 3 29 0 25
-10 -3 -9 0 -12 9 -8 8 3 12 10 9 15 -4 6 4 5 16 -2 12 -7 20 -8 16 -2 -3 5 3
12 14 15 11 3 22 2 25 -3 6 -9 92 -6 102 4 3 3 14 -1 24 -10 16 -15 20 -15 40
0 21 14 25 14 43 -2 11 -9 17 -12 14 -7 -4 7 23 10 75 10 45 -1 94 2 108 6 18
5 32 2 42 -8 14 -14 18 -14 38 1 21 14 24 14 43 -2 11 -9 17 -12 14 -7 -9 15
289 12 322 -3 22 -9 14 -18 -13 -13 -5 1 -6 -3 -2 -9 3 -5 14 -10 23 -11 11 0
13 -2 4 -6 -10 -4 -10 -8 -1 -19 6 -8 8 -14 3 -14 -5 0 -9 -18 -9 -40 0 -22 4
-40 8 -40 4 0 3 -8 -2 -18 -5 -10 -6 -24 -1 -31 4 -8 6 -25 4 -40 l-4 -26 96
0 c69 1 98 -3 101 -12 8 -20 23 -15 17 5 -4 10 -2 13 3 7 10 -12 47 -20 40 -8
-3 4 7 9 21 9 26 2 26 1 5 -9 -13 -5 -23 -14 -23 -18 0 -4 -9 -6 -20 -4 -11 2
-20 -1 -20 -7 0 -7 -6 -6 -15 2 -11 9 -15 10 -15 1 0 -8 -6 -7 -16 3 -8 9 -19
14 -24 11 -5 -3 -10 0 -12 7 -3 9 -6 9 -12 0 -4 -7 -2 -12 3 -12 17 0 13 -14
-9 -38 -12 -12 -16 -22 -11 -22 5 0 18 13 27 29 10 17 21 28 26 25 5 -3 6 -10
3 -15 -4 -5 -1 -17 5 -26 10 -16 10 -16 5 2 -4 16 0 21 15 22 13 1 18 -2 13
-10 -5 -9 -3 -9 8 0 18 15 38 12 75 -10 28 -18 28 -18 9 0 -23 22 -30 43 -13
43 6 0 20 8 31 17 11 10 17 12 13 5 -6 -9 -2 -12 10 -10 11 2 22 7 25 12 4 4
10 3 13 -3 4 -6 1 -11 -6 -11 -10 0 -10 -2 1 -9 9 -6 10 -11 2 -15 -6 -4 -11
-3 -11 2 0 5 -15 8 -32 7 -43 -4 -42 -3 -28 -20 9 -11 17 -12 30 -5 23 12 33
13 26 2 -3 -5 1 -9 9 -9 8 0 12 4 9 9 -3 4 0 8 6 8 6 0 10 6 9 13 -4 33 1 41
16 21 8 -10 14 -23 15 -29 0 -5 -5 -3 -11 5 -9 12 -10 12 -5 -3 3 -10 6 -22 6
-25 1 -4 7 4 14 18 12 21 12 26 -1 35 -12 9 -11 11 6 11 11 0 17 -4 15 -8 -7
-11 4 -10 27 2 15 8 21 7 25 -5 3 -8 10 -12 15 -9 5 3 6 11 2 17 -4 7 0 6 10
-2 14 -11 17 -11 17 0 1 10 4 8 11 -3 5 -10 15 -18 22 -18 8 0 8 3 -2 9 -9 6
-10 11 -2 15 6 4 11 3 11 -1 0 -5 9 -9 20 -10 13 -1 18 2 13 10 -3 7 2 5 13
-4 17 -14 39 -16 107 -10 5 1 6 5 3 10 -3 5 8 7 25 6 45 -4 55 13 54 93 0 39
3 68 6 66 4 -2 10 2 13 8 3 7 3 1 1 -14 -2 -15 -6 -31 -8 -35 -3 -5 6 -9 20
-10 15 0 22 2 17 5 -5 4 -9 14 -9 22 1 8 -5 27 -12 42 -17 36 -16 43 4 27 11
-10 14 -10 9 -1 -4 7 -2 12 6 12 8 0 6 5 -4 11 -10 5 -18 15 -18 21 0 9 3 9
12 0 7 -7 16 -12 22 -12 5 0 -1 8 -12 19 -12 10 -18 22 -14 26 4 5 1 5 -7 0
-10 -6 -12 -2 -6 14 4 14 3 21 -6 19 -9 -2 -12 57 -13 246 -2 185 -5 251 -14
254 -7 2 -9 9 -6 14 4 6 3 8 -2 5 -6 -3 -66 27 -134 66 -95 55 -124 77 -127
95 -2 15 1 21 8 16 8 -4 8 -1 2 12 -15 30 -11 120 6 116 7 -1 20 3 29 10 14
11 15 10 9 -7 -7 -19 -6 -19 7 -3 7 10 18 18 25 18 6 0 11 4 11 8 0 5 -7 9
-15 9 -8 0 -15 -5 -15 -11 0 -6 -5 -4 -10 4 -9 13 -10 13 -10 0 0 -13 -2 -13
-11 0 -9 12 -10 12 -5 -4 5 -15 4 -17 -7 -8 -8 7 -16 11 -18 9 -2 -1 1 3 8 9
7 6 9 15 5 19 -4 5 -1 5 6 1 7 -4 12 -2 12 6 0 10 2 10 9 -1 12 -19 44 -24 37
-6 -3 10 0 12 11 8 9 -4 14 -2 10 3 -3 5 3 10 13 10 10 0 16 -4 14 -8 -3 -4
-1 -8 5 -8 5 0 13 5 16 10 4 6 12 7 18 3 16 -10 41 -10 48 0 3 5 9 1 12 -8 5
-10 3 -14 -5 -9 -6 4 -8 3 -5 -3 3 -5 0 -10 -8 -10 -8 0 -12 4 -9 9 3 4 1 8
-5 8 -5 0 -13 -5 -16 -10 -5 -8 -11 -8 -20 0 -9 8 -14 6 -19 -6 -9 -24 1 -30
25 -16 11 7 25 9 32 5 23 -15 45 -12 62 7 10 11 22 17 28 13 5 -3 7 -1 3 5 -3
5 0 13 6 15 9 4 10 6 1 6 -6 1 -15 -3 -18 -9 -3 -5 -11 -10 -17 -10 -6 0 -5 7
4 18 9 9 14 27 12 40 -2 12 1 22 6 22 6 0 10 7 10 16 0 8 -4 13 -9 10 -13 -8
-7 49 7 66 7 9 9 24 5 34 -6 16 -5 17 9 6 11 -9 18 -10 23 -2 4 6 3 10 -2 9
-20 -3 -27 2 -14 10 12 8 12 12 2 24 -8 10 -9 17 -1 22 5 3 10 1 10 -6 0 -7 3
-9 6 -6 4 4 1 13 -6 22 -10 12 -10 15 1 15 11 0 11 2 0 9 -8 5 -16 15 -17 23
-1 7 -6 22 -10 33 -7 18 -6 19 11 5 11 -9 16 -10 11 -2 -4 7 -2 12 5 12 7 0 4
7 -7 15 -19 15 -19 15 0 30 11 8 14 15 8 15 -7 0 -11 3 -11 8 1 4 0 12 -1 17
-6 28 -4 41 10 47 12 5 12 7 -2 7 -10 1 -18 6 -18 11 0 10 9 13 41 13 9 0 16
6 16 13 0 10 -4 11 -14 3 -7 -6 -13 -8 -13 -5 0 4 -8 3 -17 -3 -13 -7 -18 -23
-19 -60 0 -28 4 -51 9 -51 5 0 4 -7 -3 -15 -6 -8 -9 -18 -7 -22 3 -5 0 -15 -6
-24 -9 -12 -12 11 -12 107 0 67 3 120 6 118 4 -2 9 3 13 11 3 9 12 12 23 9 15
-5 16 -4 3 5 -14 10 -7 16 15 11 6 -1 7 2 2 6 -12 12 -45 15 -52 4 -3 -6 1 -7
9 -4 22 8 20 -3 -2 -15 -16 -8 -17 -3 -17 57 1 37 -2 83 -5 102 l-5 35 -82 0
c-45 0 -85 3 -88 7 -4 4 -16 3 -26 -3 -13 -6 -19 -6 -19 1 0 5 -5 10 -11 10
-5 0 -8 -4 -5 -8 3 -5 -1 -9 -9 -9 -18 0 -14 35 6 47 10 7 8 9 -8 8 -14 -2
-20 -8 -18 -20 2 -10 0 -20 -5 -23 -4 -3 -7 18 -7 45 2 40 5 49 17 45 8 -3 4
3 -9 13 -15 12 -20 22 -13 26 6 4 8 14 5 23 -5 12 -3 14 8 8 11 -7 12 -6 3 6
-6 8 -10 32 -10 54 1 22 -3 43 -9 47 -6 4 -2 8 8 8 20 0 23 20 5 39 -11 10 -9
11 7 6 20 -7 20 -6 1 9 -11 9 -15 16 -9 16 17 0 35 -28 28 -42 -4 -7 0 -5 8 4
8 10 17 15 21 11 4 -4 4 1 0 12 -5 12 -9 14 -12 6 -5 -15 -32 17 -31 39 0 9 3
8 8 -5 5 -11 12 -20 17 -20 5 0 14 -4 21 -8 6 -4 15 -2 19 4 5 8 3 9 -6 4 -9
-5 -11 -4 -6 3 7 11 -6 17 -27 13 -5 -1 -6 3 -2 9 3 5 16 8 28 6 17 -2 22 -9
20 -29 -1 -20 4 -28 28 -36 37 -13 38 -4 2 10 -18 7 -23 13 -15 16 8 3 25 -1
38 -8 19 -10 27 -10 36 -1 17 17 28 15 28 -5 0 -9 2 -14 5 -11 4 3 3 18 -1 32
-6 25 -7 25 -20 9 -13 -17 -14 -17 -8 0 4 10 1 17 -6 17 -6 0 -9 -3 -7 -8 3
-4 -10 -7 -29 -8 -25 -1 -34 4 -34 15 0 14 2 14 10 1 5 -8 10 -10 10 -4 0 6
18 10 43 9 23 -1 49 3 57 9 13 10 13 9 1 -6 -8 -11 -9 -18 -3 -18 6 0 13 4 16
9 3 5 15 11 26 14 17 4 19 3 9 -9 -6 -7 -16 -11 -22 -7 -5 3 -7 1 -3 -5 3 -6
-2 -13 -11 -15 -16 -4 -16 -5 -1 -6 9 0 20 4 23 9 5 8 12 7 23 -2 15 -11 15
-11 4 3 -10 13 -9 19 3 29 8 7 15 20 14 29 0 12 -2 11 -9 -4 -5 -11 -9 -18
-10 -15 -1 3 -3 176 -4 385 -1 254 1 385 8 394 8 11 8 13 -1 7 -8 -4 -13 -2
-13 6 0 11 -279 13 -1548 13 -851 0 -1575 -1 -1609 -3z m3053 -855 c4 -4 0 -7
-9 -7 -9 0 -18 4 -21 9 -7 10 20 9 30 -2z m122 -840 c-1 -2 3 -11 11 -20 9
-11 10 -17 2 -17 -6 0 -11 -5 -11 -11 0 -5 6 -7 13 -3 9 6 9 4 -1 -8 -9 -12
-10 -18 -2 -23 8 -5 6 -13 -5 -25 -9 -10 -14 -23 -11 -29 4 -5 3 -12 -2 -15
-5 -3 -8 8 -8 24 0 16 3 27 8 24 4 -3 8 2 8 11 0 9 -3 14 -8 11 -4 -2 -7 17
-6 42 2 56 2 57 10 50 3 -4 4 -8 2 -11z m-3102 -326 c11 9 14 9 14 0 0 -7 5
-9 12 -5 7 4 8 3 4 -4 -4 -6 -13 -9 -20 -6 -8 3 -17 0 -21 -5 -10 -17 -25 -3
-18 16 5 11 8 13 11 5 3 -10 7 -10 18 -1z m3059 -31 c-3 -6 -11 -10 -18 -10
-8 0 -8 3 0 11 6 6 9 19 6 28 -4 13 -2 13 7 -2 6 -9 8 -22 5 -27z m48 -923
c-2 -4 1 -15 8 -23 10 -12 10 -15 -2 -12 -8 2 -14 -5 -14 -14 0 -9 -3 -19 -5
-22 -3 -3 -6 21 -6 54 0 48 2 55 12 42 7 -9 10 -20 7 -25z m-2376 27 c-3 -3
-12 -4 -19 -1 -8 3 -5 6 6 6 11 1 17 -2 13 -5z m-22 -49 c1 -13 -15 -35 -25
-35 -4 0 -10 7 -14 15 -3 8 -2 14 2 14 19 -3 25 2 12 11 -9 6 -11 10 -3 10 7
0 10 7 7 18 -4 13 -2 12 7 -3 8 -11 14 -24 14 -30z m-10 -65 c0 -7 -6 -15 -12
-17 -7 -3 -13 0 -13 7 0 6 5 8 10 5 6 -3 10 -2 10 4 0 5 -5 12 -10 14 -6 3 -5
4 2 3 7 -2 13 -9 13 -16z m-10 -39 c-3 -5 -1 -12 5 -16 6 -4 8 -11 5 -16 -11
-17 -22 -9 -22 16 0 14 4 25 9 25 5 0 7 -4 3 -9z m-540 -139 c-3 -3 -11 0 -18
7 -9 10 -8 11 6 5 10 -3 15 -9 12 -12z m67 0 c7 -7 19 -12 27 -12 12 0 11 3
-3 13 -15 11 -12 12 22 12 31 0 38 -3 34 -15 -5 -13 -3 -13 11 -1 9 7 17 10
17 5 0 -5 4 -2 10 6 8 12 10 12 16 -3 8 -22 25 -22 18 1 -5 14 -4 15 5 2 6 -8
11 -11 11 -6 0 5 8 2 17 -5 14 -12 16 -12 11 1 -4 11 2 15 22 15 21 1 26 -3
22 -15 -4 -11 0 -10 16 4 12 11 22 14 22 8 0 -7 3 -11 8 -9 4 1 8 -2 9 -7 1
-5 7 -13 15 -17 11 -7 11 -9 -1 -9 -8 0 -19 7 -26 17 -12 16 -40 9 -30 -8 4
-5 2 -9 -4 -9 -5 0 -11 6 -14 13 -3 9 -7 9 -19 -1 -11 -9 -18 -10 -23 -2 -3 6
-12 7 -18 3 -17 -11 -47 -11 -53 -1 -3 5 -15 2 -25 -8 -18 -16 -20 -16 -39 1
-12 11 -20 13 -20 6 0 -9 -5 -9 -20 -1 -11 6 -20 8 -20 4 0 -3 -7 -1 -15 6
-13 11 -14 10 -9 -4 4 -10 1 -16 -7 -16 -7 0 -9 3 -6 6 3 4 2 14 -3 24 -7 13
-5 16 11 15 10 -1 25 -7 31 -13z m2398 -27 c0 -7 -30 -13 -34 -7 -3 4 4 9 15
9 10 1 19 0 19 -2z"></path>
<path d="M1335 940 c15 -24 43 -30 56 -12 12 15 12 16 -2 4 -13 -10 -19 -9
-29 3 -14 17 -35 21 -25 5z"></path>
<path d="M1499 933 c-13 -16 -12 -17 4 -4 16 13 21 21 13 21 -2 0 -10 -8 -17
-17z"></path>
<path d="M4177 4103 c-4 -3 -7 -13 -7 -22 1 -13 3 -13 11 2 11 19 8 33 -4 20z"></path>
<path d="M4213 4075 c0 -8 4 -12 9 -9 5 3 6 10 3 15 -9 13 -12 11 -12 -6z"></path>
<path d="M4179 4053 c-7 -10 -9 -15 -5 -11 5 4 15 3 23 -3 9 -9 13 -8 13 0 0
6 -5 11 -11 11 -5 0 -7 5 -4 10 10 17 -2 11 -16 -7z"></path>
<path d="M4173 4015 c0 -8 4 -12 9 -9 10 6 11 -10 1 -20 -10 -9 -11 -66 -1
-60 10 6 11 -10 1 -20 -4 -3 -7 -15 -8 -25 -1 -13 3 -17 13 -13 11 4 13 2 6
-9 -5 -8 -9 -17 -10 -21 -1 -5 -2 -9 -4 -10 -1 -2 -3 -12 -4 -23 -2 -16 4 -21
23 -22 15 0 18 1 9 4 -10 2 -18 9 -18 14 0 6 6 7 13 3 9 -6 9 -4 1 7 -14 19
-12 38 6 49 10 7 11 10 3 10 -7 0 -12 3 -12 8 1 4 0 12 -1 17 -6 28 -4 41 10
47 12 5 12 7 -2 7 -10 1 -18 6 -18 12 0 5 5 7 12 3 7 -5 8 -3 2 7 -5 8 -9 19
-10 24 0 6 -2 16 -2 23 -3 17 -19 15 -19 -3z"></path>
<path d="M4214 4018 c-4 -7 -4 -10 1 -6 4 4 15 2 24 -5 14 -11 14 -10 2 6 -16
20 -18 21 -27 5z"></path>
<path d="M4215 3900 c3 -5 8 -10 11 -10 2 0 4 5 4 10 0 6 -5 10 -11 10 -5 0
-7 -4 -4 -10z"></path>
<path d="M4235 3830 c-4 -6 -11 -7 -17 -4 -7 4 -8 2 -4 -5 6 -9 11 -9 22 0 14
11 18 19 10 19 -3 0 -8 -5 -11 -10z"></path>
<path d="M4179 3768 c-7 -24 -5 -41 8 -53 13 -13 10 -18 -7 -17 -3 0 -6 -8 -6
-18 0 -10 6 -16 13 -13 7 3 10 9 8 14 -3 4 3 14 15 21 22 14 27 29 8 26 -7 -2
-13 3 -14 10 -1 6 -2 17 -3 22 -1 9 -20 15 -22 8z m17 -26 c-3 -3 0 -12 6 -21
10 -13 10 -14 -2 -4 -16 15 -23 46 -8 37 5 -3 7 -9 4 -12z"></path>
<path d="M916 3673 c-6 -14 -5 -15 5 -6 7 7 10 15 7 18 -3 3 -9 -2 -12 -12z"></path>
<path d="M4235 3670 c-4 -6 -10 -8 -14 -5 -13 8 -41 -18 -46 -43 -2 -13 0 -20
6 -17 10 7 12 -8 2 -19 -4 -3 -7 -15 -8 -25 -1 -13 3 -17 14 -13 13 5 14 3 4
-10 -7 -8 -10 -18 -6 -21 3 -4 1 -7 -6 -7 -6 0 -11 -8 -9 -17 3 -20 36 -48 45
-39 4 3 1 6 -5 6 -6 0 -16 9 -22 20 -9 16 -8 18 5 14 17 -7 21 11 3 22 -7 5
-5 11 7 21 11 7 13 13 7 13 -7 0 -11 3 -11 8 1 4 0 12 -1 17 -6 28 -4 41 10
47 12 5 12 7 -2 7 -10 1 -18 6 -18 11 0 10 9 13 41 13 9 0 16 6 16 13 0 17 -4
18 -12 4z"></path>
<path d="M4233 3615 c0 -8 4 -12 9 -9 5 3 6 10 3 15 -9 13 -12 11 -12 -6z"></path>
<path d="M4215 3580 c3 -5 8 -10 11 -10 2 0 4 5 4 10 0 6 -5 10 -11 10 -5 0
-7 -4 -4 -10z"></path>
<path d="M4215 3520 c3 -5 8 -10 11 -10 2 0 4 5 4 10 0 6 -5 10 -11 10 -5 0
-7 -4 -4 -10z"></path>
<path d="M916 3473 c-6 -14 -5 -15 5 -6 7 7 10 15 7 18 -3 3 -9 -2 -12 -12z"></path>
<path d="M4215 3480 c-3 -6 1 -7 9 -4 18 7 21 14 7 14 -6 0 -13 -4 -16 -10z"></path>
<path d="M4174 3443 c0 -13 8 -19 26 -20 14 -1 18 1 10 4 -8 4 -20 13 -25 20
-9 12 -11 11 -11 -4z"></path>
<path d="M4195 3369 c-4 -6 -5 -12 -2 -15 2 -3 7 2 10 11 7 17 1 20 -8 4z"></path>
<path d="M4146 3298 c3 -5 10 -6 15 -3 13 9 11 12 -6 12 -8 0 -12 -4 -9 -9z"></path>
<path d="M3950 3290 c-9 -6 -10 -10 -3 -10 6 0 15 5 18 10 8 12 4 12 -15 0z"></path>
<path d="M3906 3253 c-6 -14 -5 -15 5 -6 7 7 10 15 7 18 -3 3 -9 -2 -12 -12z"></path>
<path d="M1197 3195 c-4 -8 -3 -16 1 -19 4 -3 9 4 9 15 2 23 -3 25 -10 4z"></path>
<path d="M3893 3188 c1 -15 6 -23 11 -18 4 4 4 16 -2 26 -9 16 -10 14 -9 -8z"></path>
<path d="M3910 3206 c0 -2 7 -7 16 -10 8 -3 12 -2 9 4 -6 10 -25 14 -25 6z"></path>
<path d="M1216 3147 c3 -10 9 -15 12 -12 3 3 0 11 -7 18 -10 9 -11 8 -5 -6z"></path>
<path d="M1207 3039 c7 -7 15 -10 18 -7 3 3 -2 9 -12 12 -14 6 -15 5 -6 -5z"></path>
<path d="M1135 3000 c3 -5 8 -10 11 -10 2 0 4 5 4 10 0 6 -5 10 -11 10 -5 0
-7 -4 -4 -10z"></path>
<path d="M4040 3000 c-9 -6 -10 -10 -3 -10 6 0 15 5 18 10 8 12 4 12 -15 0z"></path>
<path d="M4215 2901 c-3 -5 -2 -12 3 -15 5 -3 9 1 9 9 0 17 -3 19 -12 6z"></path>
<path d="M4176 2891 c-3 -5 7 -16 22 -25 l27 -17 -22 19 c-12 11 -19 22 -16
26 4 3 4 6 0 6 -3 0 -8 -4 -11 -9z"></path>
<path d="M4174 2845 c1 -8 6 -18 11 -22 4 -5 5 -2 0 6 -6 11 -4 13 8 8 23 -9
21 0 -2 13 -15 7 -19 7 -17 -5z"></path>
<path d="M4226 2818 c3 -5 10 -6 15 -3 13 9 11 12 -6 12 -8 0 -12 -4 -9 -9z"></path>
<path d="M909 2803 c-13 -16 -12 -17 4 -4 9 7 17 15 17 17 0 8 -8 3 -21 -13z"></path>
<path d="M4184 2748 c-5 -7 -9 -20 -9 -30 -1 -13 2 -15 17 -7 20 11 24 29 7
29 -5 0 -7 5 -4 10 3 6 4 10 1 10 -3 0 -8 -6 -12 -12z"></path>
<path d="M4233 2655 c0 -8 4 -12 9 -9 5 3 6 10 3 15 -9 13 -12 11 -12 -6z"></path>
<path d="M4215 2620 c3 -5 8 -10 11 -10 2 0 4 5 4 10 0 6 -5 10 -11 10 -5 0
-7 -4 -4 -10z"></path>
<path d="M915 2561 c-3 -5 -2 -12 3 -15 5 -3 9 1 9 9 0 17 -3 19 -12 6z"></path>
<path d="M4210 2560 c0 -5 5 -10 10 -10 6 0 10 5 10 10 0 6 -4 10 -10 10 -5 0
-10 -4 -10 -10z"></path>
<path d="M4216 2502 c-3 -5 1 -9 9 -9 8 0 12 4 9 9 -3 4 -7 8 -9 8 -2 0 -6 -4
-9 -8z"></path>
<path d="M4200 2331 c0 -6 4 -13 10 -16 6 -3 7 1 4 9 -7 18 -14 21 -14 7z"></path>
<path d="M4179 2318 c-4 -15 -6 -50 -3 -40 3 6 9 10 13 8 4 -3 12 -1 19 3 8 4
5 11 -8 19 -11 7 -20 11 -21 10z"></path>
<path d="M4193 2250 c1 -10 7 -22 13 -24 7 -3 10 3 7 15 -7 27 -22 34 -20 9z"></path>
<path d="M4179 2212 c11 -8 11 -10 0 -14 -10 -3 -9 -6 3 -10 11 -5 15 -2 14
10 -2 9 -9 18 -17 20 -12 3 -12 2 0 -6z"></path>
<path d="M930 2139 c0 -5 5 -7 10 -4 6 3 10 8 10 11 0 2 -4 4 -10 4 -5 0 -10
-5 -10 -11z"></path>
<path d="M3986 2142 c-2 -4 0 -14 5 -22 8 -13 10 -13 18 0 10 15 6 30 -9 30
-5 0 -11 -4 -14 -8z"></path>
<path d="M995 2130 c-4 -6 -11 -7 -17 -4 -7 4 -8 2 -4 -5 6 -9 12 -9 24 1 10
7 19 14 21 15 2 2 -1 3 -7 3 -6 0 -14 -5 -17 -10z"></path>
<path d="M4059 2108 c-6 -21 -5 -37 2 -32 5 3 7 9 4 14 -3 4 1 11 7 13 10 4
10 6 1 6 -7 1 -13 0 -14 -1z"></path>
<path d="M4010 2085 c0 -8 4 -15 10 -15 5 0 7 7 4 15 -4 8 -8 15 -10 15 -2 0
-4 -7 -4 -15z"></path>
<path d="M4136 2087 c3 -10 9 -15 12 -12 3 3 0 11 -7 18 -10 9 -11 8 -5 -6z"></path>
<path d="M1093 2075 c0 -8 4 -12 9 -9 5 3 6 10 3 15 -9 13 -12 11 -12 -6z"></path>
<path d="M3893 2075 c0 -8 4 -15 9 -15 4 0 8 4 8 9 0 6 -4 12 -8 15 -5 3 -9
-1 -9 -9z"></path>
<path d="M3969 2077 c6 -8 7 -18 3 -22 -4 -5 -2 -5 5 -1 14 8 6 36 -9 36 -7 0
-6 -5 1 -13z"></path>
<path d="M3916 2053 c-6 -14 -5 -15 5 -6 7 7 10 15 7 18 -3 3 -9 -2 -12 -12z"></path>
<path d="M4110 2060 c0 -5 5 -10 11 -10 5 0 7 5 4 10 -3 6 -8 10 -11 10 -2 0
-4 -4 -4 -10z"></path>
<path d="M1213 2035 c0 -8 4 -12 9 -9 5 3 6 10 3 15 -9 13 -12 11 -12 -6z"></path>
<path d="M3910 2020 c0 -5 5 -10 11 -10 5 0 7 5 4 10 -3 6 -8 10 -11 10 -2 0
-4 -4 -4 -10z"></path>
<path d="M1195 1981 c-3 -5 -2 -12 3 -15 5 -3 9 1 9 9 0 17 -3 19 -12 6z"></path>
<path d="M3916 1982 c-3 -5 1 -9 9 -9 8 0 12 4 9 9 -3 4 -7 8 -9 8 -2 0 -6 -4
-9 -8z"></path>
<path d="M4215 1709 c-4 -6 -5 -12 -2 -15 2 -3 7 2 10 11 7 17 1 20 -8 4z"></path>
<path d="M4170 1681 c0 -6 5 -13 11 -17 8 -4 7 -9 -2 -15 -11 -7 -11 -9 1 -9
13 0 13 -1 0 -11 -12 -8 -12 -10 -1 -7 17 5 24 35 10 44 -5 3 -7 10 -4 15 4 5
1 9 -4 9 -6 0 -11 -4 -11 -9z"></path>
<path d="M4214 1635 c3 -23 12 -26 13 -5 1 11 -2 20 -7 20 -4 0 -7 -7 -6 -15z"></path>
<path d="M4174 1578 c1 -27 5 -33 24 -35 21 -1 21 0 6 11 -12 9 -14 15 -6 20
14 9 16 36 2 36 -5 0 -7 -8 -4 -17 5 -17 5 -17 -9 0 -13 16 -14 15 -13 -15z"></path>
<path d="M4179 1528 c-7 -24 -5 -41 8 -53 13 -13 10 -18 -7 -17 -3 0 -6 -8 -6
-18 0 -10 6 -16 13 -13 7 3 10 9 8 14 -3 4 3 14 15 21 22 14 27 29 8 26 -7 -2
-13 3 -14 10 -1 6 -2 17 -3 22 -1 9 -20 15 -22 8z m17 -26 c-3 -3 0 -12 6 -21
10 -13 10 -14 -2 -4 -16 15 -23 46 -8 37 5 -3 7 -9 4 -12z"></path>
<path d="M916 1433 c-6 -14 -5 -15 5 -6 7 7 10 15 7 18 -3 3 -9 -2 -12 -12z"></path>
<path d="M4235 1430 c-4 -6 -10 -8 -14 -5 -13 8 -41 -18 -46 -43 -2 -13 0 -20
6 -17 10 7 12 -8 2 -19 -4 -3 -7 -15 -8 -25 -1 -13 3 -17 14 -13 12 4 11 0 -4
-18 l-20 -24 26 20 c15 10 22 22 17 25 -5 3 -9 9 -9 13 1 3 0 9 0 14 -5 28 -2
38 11 44 12 5 12 7 -2 7 -10 1 -18 6 -18 11 0 10 9 13 41 13 9 0 16 6 16 13 0
17 -4 18 -12 4z"></path>
<path d="M4233 1375 c0 -8 4 -12 9 -9 5 3 6 10 3 15 -9 13 -12 11 -12 -6z"></path>
<path d="M4215 1340 c3 -5 8 -10 11 -10 2 0 4 5 4 10 0 6 -5 10 -11 10 -5 0
-7 -4 -4 -10z"></path>
<path d="M4205 1279 c-4 -6 -4 -13 -1 -16 3 -4 6 -1 6 6 0 7 5 9 10 6 6 -3 10
-1 10 4 0 14 -17 14 -25 0z"></path>
<path d="M4210 1238 c0 -4 4 -8 9 -8 6 0 12 4 15 8 3 5 -1 9 -9 9 -8 0 -15 -4
-15 -9z"></path>
<path d="M2215 1230 c-3 -5 -1 -10 4 -10 6 0 11 5 11 10 0 6 -2 10 -4 10 -3 0
-8 -4 -11 -10z"></path>
<path d="M2455 1230 c-3 -5 -1 -10 4 -10 6 0 11 5 11 10 0 6 -2 10 -4 10 -3 0
-8 -4 -11 -10z"></path>
<path d="M2575 1230 c-3 -5 -1 -10 4 -10 6 0 11 5 11 10 0 6 -2 10 -4 10 -3 0
-8 -4 -11 -10z"></path>
<path d="M2655 1230 c-3 -5 -1 -10 4 -10 6 0 11 5 11 10 0 6 -2 10 -4 10 -3 0
-8 -4 -11 -10z"></path>
<path d="M2895 1230 c-3 -5 -1 -10 4 -10 6 0 11 5 11 10 0 6 -2 10 -4 10 -3 0
-8 -4 -11 -10z"></path>
<path d="M2975 1230 c-3 -5 -1 -10 4 -10 6 0 11 5 11 10 0 6 -2 10 -4 10 -3 0
-8 -4 -11 -10z"></path>
<path d="M2106 1222 c-3 -5 1 -9 9 -9 8 0 12 4 9 9 -3 4 -7 8 -9 8 -2 0 -6 -4
-9 -8z"></path>
<path d="M2270 1220 c0 -5 5 -10 11 -10 5 0 7 5 4 10 -3 6 -8 10 -11 10 -2 0
-4 -4 -4 -10z"></path>
<path d="M2346 1222 c-3 -5 1 -9 9 -9 8 0 12 4 9 9 -3 4 -7 8 -9 8 -2 0 -6 -4
-9 -8z"></path>
<path d="M2535 1220 c-3 -5 -1 -10 4 -10 6 0 11 5 11 10 0 6 -2 10 -4 10 -3 0
-8 -4 -11 -10z"></path>
<path d="M3266 1222 c-3 -5 1 -9 9 -9 8 0 15 4 15 9 0 4 -4 8 -9 8 -6 0 -12
-4 -15 -8z"></path>
<path d="M1830 1190 c0 -6 -6 -8 -12 -4 -7 4 -10 3 -5 -1 6 -7 57 -15 57 -8 0
1 -9 7 -20 13 -14 8 -20 8 -20 0z"></path>
<path d="M4213 1136 c-3 -6 -3 -8 2 -4 4 4 13 3 20 -2 8 -7 12 -5 12 3 0 16
-25 18 -34 3z"></path>
<path d="M1795 1041 c-3 -5 0 -13 6 -17 7 -4 9 -3 5 4 -3 5 0 13 6 15 9 4 10
6 1 6 -6 1 -14 -3 -18 -8z"></path>
<path d="M4175 1040 c-3 -6 1 -7 9 -4 18 7 21 14 7 14 -6 0 -13 -4 -16 -10z"></path>
<path d="M4190 1019 c0 -6 -4 -8 -8 -5 -5 3 -9 -1 -9 -9 0 -9 4 -11 11 -6 6 4
18 10 25 13 12 3 12 6 -2 11 -9 3 -17 2 -17 -4z"></path>
<path d="M1797 995 c-4 -8 -3 -16 1 -19 4 -3 9 4 9 15 2 23 -3 25 -10 4z"></path>
<path d="M4175 974 c-9 -9 -13 -19 -10 -22 3 -3 11 1 18 10 6 9 19 18 27 21
12 4 12 6 -2 6 -9 1 -24 -6 -33 -15z"></path>
<path d="M970 939 c0 -5 5 -7 10 -4 6 3 10 8 10 11 0 2 -4 4 -10 4 -5 0 -10
-5 -10 -11z"></path>
<path d="M994 928 l-19 -23 23 19 c21 18 27 26 19 26 -2 0 -12 -10 -23 -22z"></path>
<path d="M1026 933 c-3 -7 8 -19 27 -28 19 -10 26 -11 16 -3 -9 7 -15 20 -14
29 3 19 -22 21 -29 2z"></path>
<path d="M3394 925 c0 -28 8 -24 13 5 2 11 -1 20 -5 20 -4 0 -8 -11 -8 -25z"></path>
<path d="M3436 939 c2 -4 -2 -10 -8 -13 -7 -3 -2 -3 11 0 16 4 21 3 17 -5 -4
-6 -3 -11 3 -11 5 0 9 9 8 19 -1 12 -8 19 -18 18 -10 -1 -16 -4 -13 -8z"></path>
<path d="M3830 943 c0 -7 -3 -12 -7 -12 -20 3 -30 -2 -30 -16 0 -8 4 -12 8 -9
4 2 10 -2 13 -8 3 -7 3 -2 -1 12 -5 23 -5 24 12 10 10 -8 20 -13 22 -12 3 2 7
1 11 -2 3 -3 -1 -6 -9 -6 -19 0 -42 -37 -29 -45 6 -4 9 -1 8 7 -2 7 4 12 12
10 8 -2 12 0 8 3 -9 9 34 45 45 38 4 -2 -2 -12 -14 -22 -18 -14 -19 -18 -6
-18 10 0 15 3 12 5 -3 3 5 12 16 20 16 11 23 12 29 2 5 -8 9 -8 13 4 9 23 38
21 30 -1 -4 -14 -3 -15 6 -7 28 25 -13 52 -47 30 -7 -4 -20 -2 -29 6 -19 16
-17 16 -36 0 -13 -11 -17 -10 -26 5 -6 10 -11 12 -11 6z"></path>
<path d="M4095 942 c-3 -3 0 -11 6 -19 14 -16 -3 -17 -19 -1 -9 9 -12 9 -12 0
0 -7 6 -13 13 -14 6 0 17 -2 22 -2 6 -1 17 -6 25 -10 9 -6 8 -1 -4 12 -20 23
-9 31 13 10 11 -11 11 -9 1 8 -12 19 -34 27 -45 16z"></path>
<path d="M4007 918 c-2 -7 -1 -22 3 -33 6 -16 8 -13 7 13 0 35 -2 39 -10 20z"></path>
<path d="M4033 914 c0 -7 4 -11 9 -8 4 3 8 0 8 -5 0 -6 5 -11 11 -11 8 0 9 4
0 13 -6 8 -9 16 -6 19 3 2 -1 5 -8 5 -8 0 -14 -6 -14 -13z"></path>
<path d="M1756 907 c3 -10 9 -15 12 -12 3 3 0 11 -7 18 -10 9 -11 8 -5 -6z"></path>
<path d="M1010 900 c0 -5 5 -10 11 -10 5 0 7 5 4 10 -3 6 -8 10 -11 10 -2 0
-4 -4 -4 -10z"></path>
<path d="M1290 891 c0 -7 -4 -9 -10 -6 -5 3 -10 1 -10 -4 0 -6 4 -11 9 -11 13
0 25 20 17 27 -3 4 -6 1 -6 -6z"></path>
<path d="M1557 880 c-3 -11 -2 -22 2 -24 4 -3 8 6 9 20 2 29 -4 31 -11 4z"></path>
<path d="M1651 884 c0 -11 3 -14 6 -6 3 7 2 16 -1 19 -3 4 -6 -2 -5 -13z"></path>
<path d="M1736 887 c3 -10 9 -15 12 -12 3 3 0 11 -7 18 -10 9 -11 8 -5 -6z"></path>
<path d="M3737 887 c-3 -8 1 -14 8 -14 7 0 11 6 8 14 -3 7 -6 13 -8 13 -2 0
-5 -6 -8 -13z"></path>
<path d="M3950 891 c0 -6 4 -13 10 -16 6 -3 7 1 4 9 -7 18 -14 21 -14 7z"></path>
<path d="M1334 875 c3 -23 12 -26 13 -5 1 11 -2 20 -7 20 -4 0 -7 -7 -6 -15z"></path>
<path d="M1595 880 c-3 -6 1 -7 9 -4 18 7 21 14 7 14 -6 0 -13 -4 -16 -10z"></path>
<path d="M3490 881 c0 -6 4 -13 10 -16 6 -3 7 1 4 9 -7 18 -14 21 -14 7z"></path>
<path d="M3575 880 c3 -5 8 -10 11 -10 2 0 4 5 4 10 0 6 -5 10 -11 10 -5 0 -7
-4 -4 -10z"></path>
<path d="M3674 878 c-4 -7 -4 -10 1 -6 4 4 15 2 24 -5 14 -11 14 -10 2 6 -16
20 -18 21 -27 5z"></path>
<path d="M3780 879 c0 -5 5 -7 10 -4 6 3 10 8 10 11 0 2 -4 4 -10 4 -5 0 -10
-5 -10 -11z"></path>
<path d="M3933 865 c0 -8 4 -12 9 -9 5 3 6 10 3 15 -9 13 -12 11 -12 -6z"></path>
<path d="M1215 860 c3 -5 8 -10 11 -10 2 0 4 5 4 10 0 6 -5 10 -11 10 -5 0 -7
-4 -4 -10z"></path>
<path d="M1595 851 c-3 -5 -2 -12 3 -15 5 -3 9 1 9 9 0 17 -3 19 -12 6z"></path>
</g>
</svg>
